<svg width="44" height="44" viewBox="0 0 44 44" fill="none" xmlns="http://www.w3.org/2000/svg">
<path d="M23.8131 27.4265L23.4191 27.5279L23.4383 27.9343L23.4614 28.4233L23.4806 28.8297L23.8824 28.8935C27.3838 29.4492 29.5455 30.0126 30.9031 30.569C32.0387 31.0344 32.5825 31.2769 32.9186 31.5495C33.1835 31.7645 33.344 32.0196 33.5258 32.695L34.0086 32.565L33.5258 32.695C33.6324 33.091 33.7232 33.4892 33.7981 33.8897C30.7699 36.8949 26.6022 38.75 22 38.75C17.3977 38.75 13.23 36.8947 10.2017 33.8896C10.2768 33.4893 10.3676 33.0911 10.4742 32.695C10.6552 32.0229 10.8152 31.767 11.0807 31.551L11.0808 31.5509C11.4165 31.2777 11.961 31.0332 13.0962 30.5692C15.0798 29.7586 17.2394 29.2039 20.0801 28.8985L20.4952 28.8539L20.5254 28.4376L20.561 27.9469L20.5912 27.5305L20.1869 27.4265C17.5312 26.7428 15.75 24.327 15.75 21.3733C15.75 17.9215 18.5482 15.1233 22 15.1233C25.4517 15.1233 28.25 17.9215 28.25 21.3733C28.25 24.327 26.4687 26.7428 23.8131 27.4265ZM22 43.75C34.0121 43.75 43.75 34.0121 43.75 22C43.75 9.98776 34.0121 0.25 22 0.25C9.98776 0.25 0.25 9.98776 0.25 22C0.25 34.0121 9.98776 43.75 22 43.75Z" stroke="black"/>
</svg>
